<svg id="svg" xmlns="http://www.w3.org/2000/svg" xmlns:xlink="http://www.w3.org/1999/xlink" width="400" height="400" viewBox="0, 0, 400,400"><g id="svgg"><path id="path0" d="M172.800 0.540 C 6.469 27.303,-58.380 226.435,61.433 342.517 C 162.580 440.515,331.187 405.500,384.826 275.358 C 433.811 156.508,360.031 23.200,233.321 1.615 C 224.403 0.096,180.415 -0.686,172.800 0.540 M212.757 26.414 C 227.423 27.306,227.014 27.110,226.426 32.965 L 226.000 37.200 218.800 36.988 C 214.840 36.872,208.990 36.571,205.800 36.320 L 200.000 35.863 200.000 41.432 C 200.000 44.494,199.783 48.087,199.517 49.416 L 199.034 51.832 208.214 52.405 C 219.579 53.116,219.391 53.005,218.591 58.456 L 217.955 62.800 208.872 62.523 C 198.068 62.193,198.429 61.890,198.412 71.287 L 198.400 78.173 211.000 78.887 L 223.600 79.600 223.846 83.914 C 223.981 86.287,223.744 88.576,223.318 89.002 C 222.438 89.882,188.805 88.228,187.771 87.254 C 187.424 86.928,187.874 73.202,188.771 56.753 C 189.667 40.303,190.400 26.565,190.400 26.222 C 190.400 25.392,196.865 25.448,212.757 26.414 M148.400 36.717 C 154.820 39.689,157.600 44.294,157.600 51.957 L 157.600 56.610 161.050 57.479 C 175.950 61.231,178.039 84.853,164.099 91.945 C 159.553 94.258,139.788 100.108,139.041 99.361 C 137.979 98.299,120.635 41.500,121.196 40.921 C 124.749 37.248,143.342 34.375,148.400 36.717 M272.132 41.067 C 282.809 46.096,285.738 48.379,288.602 53.904 C 295.089 66.421,285.462 83.168,271.764 83.196 C 269.681 83.200,269.559 83.379,269.984 85.800 C 271.774 95.989,273.278 108.105,272.790 108.406 C 272.468 108.605,270.037 107.833,267.388 106.690 L 262.571 104.612 261.324 96.506 C 260.639 92.048,259.830 86.481,259.527 84.135 C 259.024 80.239,253.255 74.812,251.781 76.849 C 251.642 77.042,249.777 81.084,247.638 85.831 C 245.498 90.577,243.408 94.672,242.992 94.929 C 242.082 95.491,234.270 91.959,234.582 91.126 C 240.107 76.349,259.793 35.975,261.290 36.351 C 262.265 36.596,267.144 38.718,272.132 41.067 M137.465 45.884 C 133.325 47.176,133.336 47.136,135.355 53.998 C 137.472 61.195,137.856 61.469,142.769 59.296 C 149.490 56.323,150.401 48.456,144.317 45.914 C 141.291 44.649,141.419 44.650,137.465 45.884 M260.195 58.153 C 257.033 65.179,256.239 67.658,256.995 68.141 C 266.014 73.898,274.567 74.218,278.285 68.938 C 283.241 61.899,280.679 55.789,270.800 51.086 C 264.346 48.014,264.933 47.623,260.195 58.153 M108.329 84.191 C 116.972 96.837,124.239 107.692,124.478 108.314 C 125.000 109.675,117.782 114.926,116.816 113.888 C 116.464 113.510,112.118 107.260,107.158 100.000 C 102.198 92.740,94.779 81.887,90.670 75.883 C 82.068 63.311,82.118 63.500,86.606 60.627 C 90.873 57.896,88.878 55.732,108.329 84.191 M327.653 76.458 C 335.764 83.750,342.389 89.960,342.377 90.258 C 342.342 91.065,337.721 96.000,337.000 96.000 C 336.658 96.000,333.985 93.840,331.059 91.200 C 328.134 88.560,325.439 86.430,325.071 86.467 C 324.702 86.504,316.902 94.964,307.738 105.267 C 289.576 125.686,290.252 125.174,286.529 121.334 L 283.945 118.667 295.772 105.504 C 302.278 98.265,310.051 89.591,313.046 86.229 L 318.491 80.117 314.972 76.873 C 313.036 75.088,310.495 72.876,309.326 71.956 C 308.157 71.036,307.200 69.877,307.200 69.380 C 307.200 68.564,311.896 63.200,312.610 63.200 C 312.773 63.200,319.542 69.166,327.653 76.458 M145.800 68.228 C 139.970 70.187,140.126 69.508,143.228 79.432 C 145.919 88.039,145.557 87.807,152.800 85.581 C 163.220 82.378,166.296 77.960,162.805 71.209 C 160.148 66.072,154.933 65.158,145.800 68.228 M357.803 107.838 L 360.149 111.991 356.997 116.995 C 355.263 119.748,351.984 124.975,349.709 128.612 L 345.574 135.224 356.987 134.774 C 363.264 134.526,369.367 134.174,370.550 133.992 C 372.412 133.705,373.035 134.205,375.200 137.723 C 378.990 143.884,379.446 143.709,357.866 144.363 L 338.800 144.942 327.963 151.271 C 315.351 158.637,315.812 158.538,313.210 154.416 C 310.376 149.926,310.045 150.332,322.600 142.896 C 331.044 137.894,334.397 135.451,335.531 133.472 C 342.764 120.853,353.993 103.198,354.647 103.416 C 355.093 103.564,356.513 105.554,357.803 107.838 M57.227 126.845 C 68.049 135.010,77.330 141.827,77.851 141.994 C 78.373 142.161,82.040 137.832,86.000 132.372 C 89.960 126.913,93.541 122.436,93.957 122.423 C 95.647 122.371,100.755 126.622,100.185 127.606 C 98.800 129.995,80.354 154.341,79.907 154.369 C 79.129 154.418,32.432 119.193,32.125 118.325 C 31.791 117.383,35.783 112.000,36.817 112.000 C 37.221 112.000,46.406 118.680,57.227 126.845 M215.565 119.331 C 266.185 127.825,300.823 183.853,284.338 230.576 C 283.712 232.350,283.200 234.116,283.200 234.501 C 283.200 235.464,300.821 235.375,312.000 234.356 C 350.303 230.864,351.356 219.660,315.042 201.982 C 302.121 195.692,302.742 195.620,322.491 201.124 C 446.833 235.777,364.931 259.269,195.364 237.587 C 29.480 216.377,-45.028 171.100,84.629 170.296 C 103.680 170.178,105.565 170.472,95.429 171.979 C 68.061 176.051,54.529 184.225,61.678 192.366 C 66.548 197.913,98.554 210.991,112.376 213.083 C 112.830 213.151,113.205 209.705,113.278 204.800 C 114.091 150.443,162.068 110.354,215.565 119.331 M192.400 130.125 C 154.559 136.150,127.875 165.993,126.600 203.713 C 126.144 217.215,125.693 216.095,132.045 217.217 L 134.890 217.720 135.830 207.750 C 140.907 153.872,194.255 121.720,243.600 142.800 C 252.856 146.754,248.152 142.943,237.200 137.615 C 224.029 131.208,205.285 128.074,192.400 130.125 M359.158 161.444 C 359.609 163.118,360.218 165.688,360.511 167.156 C 360.976 169.480,361.651 170.087,365.723 171.844 C 371.501 174.337,371.509 174.694,365.852 177.414 C 361.369 179.569,361.279 179.679,359.652 185.064 C 357.531 192.081,356.765 192.081,354.842 185.060 L 353.269 179.319 348.635 177.320 C 342.850 174.824,342.861 174.303,348.750 171.749 C 353.310 169.772,355.161 167.273,355.196 163.052 C 355.232 158.593,358.079 157.438,359.158 161.444 M380.800 188.000 C 384.119 191.319,381.627 196.800,376.800 196.800 C 373.876 196.800,371.200 194.316,371.200 191.600 C 371.200 188.884,373.876 186.400,376.800 186.400 C 378.133 186.400,379.911 187.111,380.800 188.000 M373.958 189.647 C 371.635 192.213,375.228 196.583,378.147 194.742 C 381.615 192.555,380.705 188.000,376.800 188.000 C 376.056 188.000,374.777 188.741,373.958 189.647 M85.569 236.951 C 88.869 240.493,86.445 245.600,81.463 245.600 C 78.084 245.600,76.000 243.586,76.000 240.321 C 76.000 235.574,82.239 233.376,85.569 236.951 M78.857 238.057 C 76.628 240.286,78.278 244.000,81.497 244.000 C 83.368 244.000,84.800 242.439,84.800 240.400 C 84.800 237.031,81.273 235.641,78.857 238.057 M127.486 239.249 C 131.286 239.996,133.319 240.831,134.098 241.964 C 134.717 242.864,136.997 246.320,139.166 249.645 C 143.563 256.387,149.437 262.781,155.906 267.868 C 161.232 272.056,161.881 271.757,157.534 267.118 C 150.506 259.618,140.543 243.991,141.914 242.619 C 142.143 242.390,148.016 243.149,154.965 244.304 C 188.930 249.953,231.248 254.944,258.400 256.501 C 271.615 257.260,271.414 257.085,266.153 263.246 C 231.016 304.396,163.761 301.835,130.907 258.096 C 123.949 248.833,118.025 236.697,121.000 237.800 C 121.550 238.004,124.469 238.656,127.486 239.249 M67.989 248.372 C 68.402 249.457,69.729 254.162,70.938 258.829 C 73.415 268.385,71.733 266.713,84.600 272.406 C 91.728 275.560,91.352 276.587,81.518 280.835 C 72.462 284.748,73.117 283.899,69.843 295.963 C 66.446 308.483,64.723 308.575,61.599 296.400 C 60.583 292.440,59.447 288.087,59.074 286.727 C 58.472 284.533,57.487 283.862,50.354 280.780 C 39.018 275.883,38.999 275.267,50.044 270.803 C 59.087 267.148,58.407 267.931,61.172 258.000 C 64.636 245.565,66.123 243.464,67.989 248.372 M40.292 253.658 C 44.196 256.729,42.075 263.200,37.164 263.200 C 31.317 263.200,29.324 254.952,34.652 252.806 C 37.286 251.744,37.996 251.852,40.292 253.658 M360.600 259.797 C 363.041 262.992,360.555 268.800,356.747 268.800 C 352.555 268.800,349.689 264.836,351.310 261.278 C 352.965 257.647,358.307 256.795,360.600 259.797 M334.701 265.400 C 334.926 266.170,335.670 268.780,336.354 271.200 C 337.545 275.409,337.782 275.674,341.800 277.309 C 347.106 279.467,347.076 280.490,341.631 283.103 C 337.350 285.158,337.228 285.311,335.631 290.664 C 333.574 297.556,332.792 297.516,330.800 290.419 L 329.200 284.717 324.575 282.632 C 319.081 280.156,319.119 279.413,324.858 277.108 C 329.069 275.416,329.243 275.222,330.610 270.682 C 332.561 264.207,332.651 264.000,333.521 264.000 C 333.945 264.000,334.476 264.630,334.701 265.400 M332.155 273.253 C 331.334 276.320,330.761 276.989,328.001 278.093 C 324.039 279.678,323.998 280.309,327.763 281.811 C 330.227 282.794,330.952 283.650,332.068 286.896 L 333.409 290.800 334.382 287.068 C 335.255 283.721,335.735 283.172,339.045 281.739 L 342.735 280.142 338.950 278.303 C 335.641 276.695,335.104 276.081,334.678 273.414 C 333.996 269.155,333.263 269.108,332.155 273.253 M122.435 289.000 C 126.506 291.325,126.594 290.895,119.617 302.850 C 116.327 308.488,113.726 313.193,113.839 313.305 C 113.951 313.417,118.679 316.215,124.346 319.522 L 134.649 325.535 140.575 315.367 C 143.834 309.775,146.803 304.894,147.171 304.520 C 147.790 303.891,155.200 307.630,155.200 308.571 C 155.200 309.280,125.490 360.000,125.075 360.000 C 124.249 360.000,117.600 355.819,117.600 355.300 C 117.600 354.998,120.321 350.117,123.647 344.452 C 130.677 332.478,131.207 334.271,118.465 326.933 C 107.673 320.717,109.451 320.112,102.363 332.410 C 99.196 337.904,96.129 342.400,95.548 342.400 C 93.162 342.400,88.670 338.985,89.066 337.471 C 89.690 335.081,117.801 287.200,118.579 287.200 C 118.966 287.200,120.702 288.010,122.435 289.000 M281.621 316.622 L 296.136 336.844 301.468 333.062 C 304.401 330.982,308.942 327.732,311.560 325.840 C 317.338 321.664,316.907 321.674,319.542 325.656 C 322.335 329.876,323.212 328.817,307.653 340.020 C 294.929 349.181,294.038 349.684,292.989 348.287 C 287.250 340.642,260.033 302.467,259.845 301.798 C 259.590 300.893,265.582 295.914,266.554 296.224 C 266.858 296.321,273.638 305.500,281.621 316.622 M351.400 299.323 C 355.696 304.400,347.915 311.115,343.200 306.400 C 340.875 304.075,341.129 300.487,343.765 298.413 C 346.298 296.420,349.241 296.771,351.400 299.323 M343.812 301.294 C 342.132 304.981,346.670 307.730,349.600 304.800 C 351.529 302.871,351.590 302.104,349.943 300.457 C 347.945 298.460,344.915 298.873,343.812 301.294 M227.992 313.800 C 228.408 314.790,231.502 325.320,234.866 337.200 C 238.230 349.080,241.248 359.089,241.573 359.442 C 241.899 359.796,247.326 358.590,253.634 356.762 C 264.238 353.690,265.179 353.542,266.094 354.794 C 267.127 356.205,268.415 362.251,267.812 362.854 C 267.109 363.557,236.361 372.031,235.282 371.819 C 234.132 371.594,218.172 317.524,218.590 315.271 C 218.802 314.129,223.207 312.173,225.817 312.061 C 226.597 312.027,227.575 312.810,227.992 313.800 M188.001 315.400 C 189.220 318.260,206.400 373.996,206.400 375.090 C 206.400 375.792,204.960 376.008,201.400 375.838 L 196.400 375.600 194.793 371.060 C 193.910 368.563,192.968 366.301,192.700 366.034 C 192.300 365.633,173.818 363.269,170.676 363.216 C 170.168 363.207,168.611 365.222,167.216 367.694 L 164.680 372.188 160.312 371.826 C 153.574 371.267,153.550 371.426,162.994 354.318 C 167.727 345.744,174.660 333.082,178.400 326.181 C 185.225 313.587,186.580 312.066,188.001 315.400 M179.693 345.131 C 174.637 354.599,174.481 355.184,177.000 355.241 C 177.990 355.264,181.230 355.552,184.200 355.883 C 187.170 356.213,189.600 356.356,189.600 356.201 C 189.600 355.640,184.620 337.194,184.406 336.959 C 184.284 336.827,182.163 340.504,179.693 345.131 " stroke="none" fill="#000000" fill-rule="evenodd"></path></g></svg>